<svg xmlns="http://www.w3.org/2000/svg" width="794" height="1123" viewBox="0 0 794 1123" version="1.1">
	<path d="M 226.109 356.296 L 213.719 360.395 224.609 364.034 C 241.668 369.733, 241 369.672, 241 365.519 L 241 362 331.500 362 C 393.916 362, 422 362.325, 422 363.048 C 422 363.624, 423.191 365.199, 424.646 366.548 C 430.404 371.884, 440 367.990, 440 360.318 C 440 355.409, 436.311 352, 431 352 C 427.990 352, 426.261 352.648, 424.455 354.455 C 423.105 355.805, 422 357.380, 422 357.955 C 422 358.674, 393.790 359, 331.500 359 L 241 359 241 355.500 C 241 353.314, 240.531 352.037, 239.750 352.099 C 239.063 352.153, 232.924 354.042, 226.109 356.296" stroke="none" fill="#000000" fill-rule="evenodd"/>
</svg>